<?xml version="1.0" encoding="UTF-8"?>
<svg id="katman_1" data-name="katman 1" xmlns="http://www.w3.org/2000/svg" version="1.1" viewBox="0 0 8192 1600">
  <defs>
    <style>
      .cls-1 {
        fill: #000;
      }

      .cls-1, .cls-2 {
        stroke-width: 0px;
      }

      .cls-2 {
        fill: #0188cc;
      }
    </style>
  </defs>
  <g id="dark-logo_svg_2930740793792" data-name="dark-logo svg   2930740793792">
    <path class="cls-1" d="M349.2,1458.8L27.8,500.4h282.4l178.3,650.1h18.6l180.2-650.1h280.5l180.2,650.1h16.7l180.2-650.1h267.5l-321.4,958.4h-284.2l-178.3-605.5h-16.7l-178.3,605.5h-284.2ZM1674.4,494.6h258.2v958.4h-258.2V494.6h0ZM1694.8,336.7c-28.5-28.5-42.7-64.4-42.7-107.7s14.2-79.2,42.7-107.7c28.5-28.5,64.4-42.7,107.7-42.7s79.2,14.3,107.7,42.7c28.5,28.5,42.7,64.4,42.7,107.7s-14.3,79.3-42.7,107.7c-28.5,28.5-64.4,42.7-107.7,42.7s-79.2-14.2-107.7-42.7ZM2186.8,1382.6c-70-53.9-104.9-120.4-104.9-199.7s1.2-21.1,3.7-33.4h254.5v9.3c0,33.4,17,60.7,51.1,81.7,34.1,21.1,79,31.6,134.7,31.6s100.6-9,134.7-26.9c34.1-18,51.1-44.9,51.1-80.8s-17.4-53-52-65.9c-34.7-13-90.4-25.7-167.2-38.1-81.7-12.4-149.9-26.6-204.3-42.7-54.5-16.1-101.2-44.6-140.2-85.4-39-40.9-58.5-97.8-58.5-170.9s17.6-116.1,52.9-162.5c35.3-46.5,85.1-82.3,149.5-107.7,64.4-25.4,138.7-38.1,222.9-38.1,143.6,0,252,26,325,78,73.1,52,109.6,122,109.6,209.9s-.6,19.8-1.9,26h-254.5c0-1.2.3-2.8.9-4.6.6-1.9.9-4.6.9-8.3,0-30.9-14.9-56.9-44.6-78-29.7-21-74.9-31.6-135.6-31.6-113.9,0-170.9,35.3-170.9,105.9s17.6,54.8,52.9,67.8c35.3,13,91.3,25.1,168.1,36.3,84.2,13.6,152.6,28.2,205.3,43.6,52.6,15.5,98.4,43.4,137.5,83.6,39,40.3,58.5,96.9,58.5,170s-39,171.2-117,227.5c-78,56.4-185.7,84.5-323.2,84.5s-269.1-27-339-80.8h0ZM3809.4,854.1c-9.9-68.1-36.5-120.1-79.9-156-43.4-35.9-94.7-53.9-154.2-53.9s-109.9,18.6-155.1,55.7c-45.2,37.1-73.4,88.5-84.5,154.2h473.6ZM3211.3,1331.5c-91.6-87.9-137.4-212.4-137.4-373.3s46.7-288.5,140.2-375.2c93.5-86.7,218.2-130,374.3-130s180.8,19.2,252.6,57.6c71.8,38.4,127.3,93.5,166.3,165.3,39,71.8,58.5,157.3,58.5,256.4s-1.9,62.5-5.6,94.7h-730c8.7,78,35.9,138.4,81.7,181.1,45.9,42.7,104,64.1,174.6,64.1s80.5-8.7,115.2-26c34.7-17.3,61.9-41.5,81.7-72.4h250.8c-28.5,89.1-81.7,159.7-159.7,211.8-78,52-173.4,78-286,78-159.7,0-285.5-43.9-377.1-131.9h0ZM4216.2,500.4h239.6l18.6,146.7h18.6c34.7-50.7,77.7-87.9,129.1-111.4,51.4-23.5,119.2-35.3,203.4-35.3v237.7c-16.1-2.5-39.6-3.7-70.6-3.7-187,0-280.5,99.7-280.5,299v425.4h-258.2V500.4ZM4986.1,1382.6c-70-53.9-104.9-120.4-104.9-199.7s1.2-21.1,3.7-33.4h254.5v9.3c0,33.4,17,60.7,51.1,81.7,34,21.1,78.9,31.6,134.7,31.6s100.6-9,134.7-26.9c34-18,51.1-44.9,51.1-80.8s-17.3-53-52-65.9c-34.7-13-90.4-25.7-167.2-38.1-81.7-12.4-149.9-26.6-204.3-42.7-54.5-16.1-101.2-44.6-140.3-85.4-39-40.9-58.5-97.8-58.5-170.9s17.6-116.1,52.9-162.5c35.3-46.5,85.1-82.3,149.5-107.7,64.4-25.4,138.7-38.1,222.9-38.1,143.6,0,252,26,325.1,78,73,52,109.6,122,109.6,209.9s-.6,19.8-1.8,26h-254.5c0-1.2.3-2.8.9-4.6.6-1.9.9-4.6.9-8.3,0-30.9-14.9-56.9-44.6-78-29.7-21-74.9-31.6-135.6-31.6-114,0-170.9,35.3-170.9,105.9s17.6,54.8,52.9,67.8c35.3,13,91.3,25.1,168.1,36.3,84.2,13.6,152.6,28.2,205.2,43.6,52.6,15.5,98.5,43.4,137.5,83.6,39,40.3,58.5,96.9,58.5,170s-39,171.2-117,227.5c-78,56.4-185.7,84.5-323.2,84.5s-269-27-339-80.8h0ZM7906,128.6h258.2v1326.2h-258.2V128.6ZM7402.2,129h258.2v1326.2h-258.2V129Z"/>
    <path class="cls-2" d="M6879,1016.1h-554.1l-33.7-224.7,629-3.7-41.2,228.4h0ZM6962.4,1199.6c71.8,0,134.2-49.4,150.7-119.3l80.5-341.8c22.9-97.2-50.8-190.3-150.7-190.3l-831.1-11.5c-9.3.8-19.7.6-29.2,0-28.1-1.7-54.6-11.5-60.1-39.1l-59.2-272.3c-5.5-27.4-28-48.1-55.8-51.3l-206.5-3.6c-26.1-2.9-52.1,12-59.9,37-10.6,33.7,12.5,67,45.8,70.6l76.1,17.2c23.2,2.5,48.5,27,53.2,49.9l57.6,352.8c2.9,17.7,6.7,30.4,9.6,43.3l55.8,335.6,55.5,318.2c5.5,21.1,7.5,26.9,15.6,40.3,11.3,18.8,26.6,27.2,48.6,27.2l874.7-10c26.3,0,44.8-20.8,49.9-46.6,6.9-34.6-23.1-79.3-56.6-79.3h-715.5c-30.2,0-56.3-21-62.7-50.6-8.7-40,21.8-77.8,62.8-77.8l650.9,1h0Z"/>
  </g>
</svg>